#!OML:ASF H:\Punching\Project 1\Capture day 1\Session 1\female.ASF
:FULLY-SPECIFIED
:DEGREES
3171
root 1.5502 14.6937 2.72492 12.2085 -2.24413 3.86959
lowerback -2.56089 -2.93558 2.33247
upperback -5.32187 -3.97061 -1.05559
thorax -4.29617 -2.1103 -2.33589
lowerneck -12.7415 6.69355 10.1616
upperneck 37.3285 10.9278 -9.80128
head 16.85 4.70531 -4.17335
rclavicle -2.21179e-014 5.36719e-015
rhumerus 19.7256 24.4417 -61.3251
rradius 126.463
rwrist -17.3433
rhand -29.3221 9.12682
rfingers 7.12502
rthumb -2.66278 -20.8363
lclavicle -2.21179e-014 5.36719e-015
lhumerus 3.77109 -15.5594 66.4763
lradius 138.794
lwrist 3.4342
lhand -24.5564 4.16857
lfingers 7.12502
lthumb 1.94 34.1395
rfemur -48.7558 -7.12048 24.2901
rtibia 56.6008
rfoot -19.5106 -15.683
rtoes 15.5864
lfemur -10.6688 1.58613 -11.2953
ltibia 61.321
lfoot -181.755 194.144
ltoes -13.4351
3172
root 1.58189 14.6705 2.67467 12.4931 -1.36691 3.85341
lowerback -2.69472 -3.03576 2.22155
upperback -5.44734 -4.10115 -0.897639
thorax -4.33952 -2.1689 -2.11242
lowerneck -12.8999 6.53368 9.97844
upperneck 37.3179 10.6789 -9.68176
head 16.8173 4.58924 -4.12956
rclavicle 6.55058e-015 4.96962e-015
rhumerus 19.7059 23.8885 -60.9992
rradius 126.555
rwrist -17.3653
rhand -29.1158 8.94296
rfingers 7.12502
rthumb -2.46358 -21.0226
lclavicle 6.55058e-015 4.96962e-015
lhumerus 4.16706 -15.8505 66.7659
lradius 138.682
lwrist 3.39393
lhand -24.3494 4.31678
lfingers 7.12502
lthumb 2.13996 34.2858
rfemur -49.449 -7.61802 24.2365
rtibia 57.0391
rfoot -19.5172 -15.933
rtoes 15.4333
lfemur -8.93822 1.21852 -10.8673
ltibia 58.0429
lfoot -183.034 194.61
ltoes -14.0356
3173
root 1.61571 14.6472 2.62217 12.7661 -0.49904 3.85133
lowerback -2.80769 -3.13474 2.10006
upperback -5.57011 -4.2295 -0.743112
thorax -4.39007 -2.22578 -1.88597
lowerneck -13.0634 6.37209 9.79221
upperneck 37.2968 10.4268 -9.56089
head 16.7805 4.47152 -4.0846
rclavicle 4.04558e-014 1.11319e-014
rhumerus 19.6953 23.31 -60.6684
rradius 126.646
rwrist -17.3512
rhand -28.8631 8.69283
rfingers 7.12502
rthumb -2.21951 -21.2754
lclavicle 4.04558e-014 1.11319e-014
lhumerus 4.56464 -16.1272 67.0492
lradius 138.574
lwrist 3.35379
lhand -24.1338 4.39029
lfingers 7.12502
lthumb 2.34813 34.3571
rfemur -50.1419 -8.14398 24.1698
rtibia 57.478
rfoot -19.5147 -16.1577
rtoes 15.3033
lfemur -7.28736 0.732941 -10.5125
ltibia 54.7824
lfoot -184.353 195.076
ltoes -14.6844
3174
root 1.65161 14.6235 2.56723 13.0304 0.362726 3.87444
lowerback -2.89895 -3.23266 1.95938
upperback -5.68923 -4.35605 -0.597452
thorax -4.44706 -2.28085 -1.65723
lowerneck -13.2356 6.20763 9.60161
upperneck 37.2638 10.1673 -9.43239
head 16.7389 4.35089 -4.03606
rclavicle -2.6662e-014 -9.93923e-015
rhumerus 19.6911 22.6983 -60.3341
rradius 126.736
rwrist -17.3065
rhand -28.5853 8.40637
rfingers 7.12502
rthumb -1.95122 -21.5645
lclavicle -2.6662e-014 -9.93923e-015
lhumerus 4.96013 -16.3995 67.3272
lradius 138.467
lwrist 3.30424
lhand -23.9084 4.43319
lfingers 7.12502
lthumb 2.56582 34.3975
rfemur -50.8388 -8.69992 24.078
rtibia 57.9176
rfoot -19.4989 -16.3624
rtoes 15.1962
lfemur -5.73536 0.122412 -10.245
ltibia 51.5752
lfoot -185.68 195.537
ltoes -15.3626
3175
root 1.68953 14.5999 2.50991 13.2923 1.22261 3.92119
lowerback -2.97583 -3.33181 1.80284
upperback -5.80793 -4.48398 -0.458544
thorax -4.50996 -2.33578 -1.42605
lowerneck -13.3968 6.03926 9.40241
upperneck 37.2095 9.90125 -9.29758
head 16.6825 4.2276 -3.98358
rclavicle -5.74457e-014 -3.97569e-015
rhumerus 19.697 22.0624 -59.9933
rradius 126.825
rwrist -17.2419
rhand -28.2921 8.06236
rfingers 7.12502
rthumb -1.668 -21.9109
lclavicle -5.74457e-014 -3.97569e-015
lhumerus 5.35413 -16.644 67.6026
lradius 138.338
lwrist 3.2679
lhand -23.6882 4.28757
lfingers 7.12502
lthumb 2.77849 34.2492
rfemur -51.5426 -9.28378 23.9619
rtibia 58.3546
rfoot -19.4686 -16.5502
rtoes 15.11
lfemur -4.30302 -0.618972 -10.0638
ltibia 48.4595
lfoot -186.983 195.985
ltoes -16.0043
3176
root 1.72946 14.5764 2.45005 13.5547 2.08463 3.99515
lowerback -3.03881 -3.43013 1.63055
upperback -5.92647 -4.61071 -0.330649
thorax -4.57899 -2.38936 -1.19689
lowerneck -13.5505 5.86264 9.19554
upperneck 37.1384 9.62063 -9.15294
head 16.6133 4.09876 -3.92744
rclavicle 2.95351e-014 8.34896e-015
rhumerus 19.7002 21.3932 -59.6515
rradius 126.915
rwrist -17.1727
rhand -27.9885 7.70363
rfingers 7.12502
rthumb -1.37479 -22.2717
lclavicle 2.95351e-014 8.34896e-015
lhumerus 5.73868 -16.8867 67.8819
lradius 138.197
lwrist 3.23431
lhand -23.47 3.97913
lfingers 7.12502
lthumb 2.98923 33.9379
rfemur -52.2527 -9.89395 23.8157
rtibia 58.7859
rfoot -19.4224 -16.7258
rtoes 15.0337
lfemur -3.00532 -1.4912 -9.97232
ltibia 45.4748
lfoot -188.214 196.424
ltoes -16.6271
3177
root 1.77143 14.5533 2.38766 13.8237 2.94725 4.10057
lowerback -3.09458 -3.52999 1.43922
upperback -6.04688 -4.73956 -0.212585
thorax -4.65224 -2.44304 -0.966935
lowerneck -13.6935 5.67995 8.98256
upperneck 37.051 9.33039 -9.00255
head 16.5326 3.96618 -3.86897
rclavicle -8.28249e-014 -8.74653e-015
rhumerus 19.7034 20.7015 -59.3116
rradius 127.007
rwrist -17.108
rhand -27.6822 7.3679
rfingers 7.12502
rthumb -1.07895 -22.6091
lclavicle -8.28249e-014 -8.74653e-015
lhumerus 6.1168 -17.1215 68.1636
lradius 138.036
lwrist 3.20627
lhand -23.2543 3.5624
lfingers 7.12502
lthumb 3.1975 33.5182
rfemur -52.9722 -10.5271 23.6338
rtibia 59.2079
rfoot -19.3547 -16.8929
rtoes 14.9593
lfemur -1.85649 -2.48497 -9.97376
ltibia 42.6573
lfoot -189.349 196.868
ltoes -17.1668
3178
root 1.81538 14.531 2.32256 14.1077 3.81071 4.23893
lowerback -3.15424 -3.62958 1.22972
upperback -6.16407 -4.86836 -0.107484
thorax -4.71834 -2.49577 -0.740916
lowerneck -13.8401 5.49048 8.76851
upperneck 36.9477 9.02656 -8.84541
head 16.444 3.82863 -3.80916
rclavicle -3.00569e-014 -4.37326e-015
rhumerus 19.7139 19.9783 -58.9762
rradius 127.105
rwrist -17.0469
rhand -27.3719 7.02547
rfingers 7.12502
rthumb -0.779317 -22.9528
lclavicle -3.00569e-014 -4.37326e-015
lhumerus 6.50519 -17.3616 68.4363
lradius 137.865
lwrist 3.1792
lhand -23.0361 3.12933
lfingers 7.12502
lthumb 3.40827 33.0818
rfemur -53.7059 -11.1771 23.4134
rtibia 59.6175
rfoot -19.2647 -17.0556
rtoes 14.8802
lfemur -0.872233 -3.58019 -10.0632
ltibia 40.0384
lfoot -190.351 197.339
ltoes -17.5983
3179
root 1.86179 14.5095 2.25497 14.4053 4.67487 4.41458
lowerback -3.22338 -3.73171 1.00343
upperback -6.27588 -5.00086 -0.0148073
thorax -4.77196 -2.54948 -0.519551
lowerneck -13.9994 5.29962 8.56701
upperneck 36.842 8.71988 -8.69653
head 16.3609 3.69024 -3.75576
rclavicle 1.63625e-014 -1.11319e-014
rhumerus 19.725 19.2283 -58.6554
rradius 127.211
rwrist -16.9785
rhand -27.0464 6.74308
rfingers 7.12502
rthumb -0.464862 -23.2362
lclavicle 1.63625e-014 -1.11319e-014
lhumerus 6.89645 -17.6168 68.7008
lradius 137.706
lwrist 3.1327
lhand -22.807 2.79646
lfingers 7.12502
lthumb 3.62952 32.7453
rfemur -54.4481 -11.8518 23.1486
rtibia 60.0133
rfoot -19.1477 -17.2127
rtoes 14.7827
lfemur -0.049087 -4.75177 -10.2419
ltibia 37.6401
lfoot -191.239 197.864
ltoes -18.0545
3180
root 1.9105 14.4884 2.18465 14.7151 5.52994 4.61372
lowerback -3.29825 -3.83026 0.769617
upperback -6.38036 -5.1287 0.0690145
thorax -4.8135 -2.60037 -0.304278
lowerneck -14.1752 5.10471 8.37125
upperneck 36.7328 8.40565 -8.54975
head 16.2817 3.5488 -3.70555
rclavicle 5.01931e-015 -7.95139e-016
rhumerus 19.7387 18.4455 -58.3514
rradius 127.327
rwrist -16.8912
rhand -26.6883 6.44164
rfingers 7.12502
rthumb -0.119022 -23.5381
lclavicle 5.01931e-015 -7.95139e-016
lhumerus 7.30186 -17.8902 68.9522
lradius 137.565
lwrist 3.07098
lhand -22.5476 2.64727
lfingers 7.12502
lthumb 3.88 32.5917
rfemur -55.1962 -12.5282 22.8497
rtibia 60.3931
rfoot -19.0024 -17.3735
rtoes 14.6719
lfemur 0.618164 -5.95234 -10.4876
ltibia 35.4785
lfoot -192.15 198.412
ltoes -18.7678
